<?xml version="1.0" standalone="no"?>
<!DOCTYPE svg PUBLIC "-//W3C//DTD SVG 20010904//EN"
 "http://www.w3.org/TR/2001/REC-SVG-20010904/DTD/svg10.dtd">
<svg version="1.0" xmlns="http://www.w3.org/2000/svg"
 width="1020.000000pt" height="1020.000000pt" viewBox="0 0 1020.000000 1020.000000"
 preserveAspectRatio="xMidYMid meet">
<metadata>
Created by potrace 1.11, written by Peter Selinger 2001-2013
</metadata>
<g transform="translate(0.000000,1020.000000) scale(0.100000,-0.100000)"
fill="#000000" stroke="none">
<path d="M4796 6483 c-2 -2 -38 -9 -106 -18 -54 -7 -89 -14 -170 -36 -41 -11
-83 -22 -93 -24 -104 -24 -317 -127 -458 -221 -119 -79 -157 -111 -279 -234
-87 -88 -100 -103 -160 -180 -19 -25 -37 -47 -40 -50 -3 -3 -11 -17 -19 -32
-8 -15 -23 -37 -33 -48 -10 -11 -16 -20 -12 -20 4 0 0 -8 -8 -17 -21 -24 -131
-233 -122 -233 3 0 2 -6 -4 -12 -23 -30 -85 -237 -97 -328 -27 -196 -24 -393
10 -550 5 -27 19 -92 20 -100 9 -52 120 -303 147 -332 7 -7 20 -25 28 -40 41
-71 191 -230 273 -288 26 -18 47 -37 47 -41 0 -4 10 -11 23 -15 12 -4 24 -10
27 -14 7 -9 134 -81 185 -104 72 -31 79 -34 140 -55 73 -24 142 -42 175 -46
14 -2 48 -7 75 -11 28 -5 122 -8 210 -7 202 1 254 7 415 49 108 28 108 28 135
39 11 4 49 19 85 33 62 23 199 90 210 102 3 3 17 11 31 19 55 28 216 156 295
235 100 99 173 187 239 286 28 41 52 77 55 80 3 3 14 23 25 45 35 72 36 72 65
-7 51 -140 103 -235 195 -353 59 -76 170 -187 230 -230 15 -11 39 -29 54 -40
31 -25 84 -59 91 -60 3 0 16 -8 30 -17 66 -44 339 -152 368 -146 4 0 14 -1 22
-5 21 -8 68 -17 110 -21 19 -2 35 -5 35 -6 0 -4 82 -10 165 -12 126 -3 338 18
418 41 18 5 35 10 37 10 3 1 6 1 8 2 1 0 13 3 27 5 102 19 356 125 484 202 37
23 72 42 77 42 5 0 9 5 9 10 0 6 8 14 18 17 9 4 29 16 43 27 14 12 46 37 70
56 54 43 222 212 269 269 48 60 125 174 162 240 17 31 34 61 38 66 5 6 9 13 9
17 1 4 11 29 22 55 19 44 58 153 63 178 2 6 8 28 14 50 6 22 14 58 17 80 15
105 21 156 20 175 -1 11 2 20 6 20 4 0 5 8 3 18 -2 9 -5 80 -8 157 -3 77 -8
154 -11 170 -3 17 -7 44 -10 60 -5 29 -10 54 -19 93 -2 9 -9 28 -14 42 -5 14
-11 30 -12 35 -11 44 -71 184 -81 191 -5 3 -9 14 -9 24 0 10 -3 20 -7 22 -5 2
-30 37 -58 78 -27 41 -88 113 -135 160 -83 85 -226 200 -248 200 -5 0 -12 4
-14 8 -5 15 -137 82 -227 117 -90 35 -211 68 -296 81 -106 17 -445 9 -547 -12
-33 -6 -90 -16 -113 -20 -11 -1 -20 -3 -20 -4 0 -2 -32 -10 -60 -15 -26 -4
-154 -43 -180 -55 -11 -4 -39 -15 -61 -23 -64 -24 -173 -77 -179 -88 -4 -5
-11 -7 -16 -4 -5 4 -9 2 -9 -4 0 -6 -11 -13 -25 -17 -14 -3 -25 -10 -25 -15 0
-5 -4 -9 -9 -9 -14 0 -91 -52 -91 -62 0 -4 -4 -8 -10 -8 -31 0 -271 -233 -324
-315 -11 -17 -25 -34 -31 -40 -20 -18 -106 -145 -98 -145 4 0 3 -4 -3 -8 -9
-6 -94 -147 -94 -157 0 -1 -12 -29 -27 -61 -14 -33 -28 -65 -29 -73 -9 -45
-28 -71 -53 -71 -14 0 -314 -1 -666 -3 l-640 -2 -27 -24 c-14 -13 -29 -34 -32
-47 -4 -13 -11 -24 -16 -24 -6 0 -10 -6 -10 -12 0 -7 -22 -58 -49 -113 -27
-55 -55 -116 -64 -135 -8 -19 -27 -62 -42 -95 -46 -99 -39 -148 21 -163 16 -4
203 -7 417 -6 213 0 387 -1 387 -3 0 -2 -25 -38 -56 -80 -59 -80 -167 -189
-196 -199 -10 -3 -18 -10 -18 -15 0 -5 -5 -9 -10 -9 -6 0 -27 -11 -48 -24 -45
-28 -170 -72 -232 -81 -123 -19 -266 -3 -372 40 -190 77 -321 230 -374 435
-18 68 -23 236 -10 300 4 19 7 42 8 50 1 62 86 263 140 335 32 40 187 195 197
195 4 0 18 9 31 20 13 11 29 20 37 20 7 0 13 4 13 9 0 12 166 86 226 100 46
11 120 22 149 22 53 0 145 -13 192 -26 118 -34 197 -80 280 -163 43 -43 85
-81 95 -84 9 -4 42 0 75 9 32 8 65 16 73 18 8 2 35 9 60 16 25 7 50 13 55 15
6 1 37 10 70 19 33 9 67 18 75 20 8 1 35 8 60 15 25 7 52 13 60 15 58 11 219
59 237 71 14 9 20 20 17 32 -10 30 -79 167 -86 170 -5 2 -8 8 -8 13 0 12 -79
126 -120 172 -61 69 -130 137 -139 137 -5 0 -11 3 -13 8 -4 11 -98 86 -98 78
0 -3 -9 2 -20 12 -44 37 -158 96 -270 139 -63 24 -82 30 -125 39 -11 2 -48 10
-82 17 -34 8 -64 12 -67 10 -3 -3 -11 -1 -18 3 -11 8 -334 14 -342 7z m3077
-776 c201 -39 389 -182 470 -357 15 -33 39 -95 37 -95 0 0 6 -22 14 -50 19
-66 27 -212 14 -255 -4 -14 -9 -41 -11 -60 -3 -19 -7 -42 -9 -50 -3 -8 -11
-33 -18 -55 -21 -68 -59 -144 -102 -209 -41 -59 -180 -206 -196 -206 -5 0 -17
-8 -28 -18 -29 -26 -184 -116 -184 -106 0 4 -6 2 -12 -3 -11 -9 -105 -43 -133
-49 -145 -28 -291 -17 -425 34 -8 3 -18 4 -22 4 -5 -1 -8 3 -8 8 0 6 -7 10
-15 10 -25 0 -126 70 -180 124 -60 62 -97 106 -88 106 3 0 -1 8 -9 18 -16 17
-46 80 -66 137 -39 109 -41 264 -7 396 12 48 26 93 31 100 5 8 9 19 10 24 4
25 47 115 55 115 5 0 9 9 9 19 0 11 3 21 8 23 4 2 18 19 32 39 31 46 127 149
138 149 4 0 14 9 22 20 8 11 18 20 22 20 4 0 24 12 45 26 90 62 251 122 372
139 19 3 36 7 38 8 4 5 165 0 196 -6z"/>
<path d="M1701 5695 c-22 -12 -101 -110 -101 -125 0 -5 8 -10 18 -11 75 -4
1423 -6 1444 -2 34 6 125 127 105 140 -19 12 -1443 11 -1466 -2z"/>
<path d="M1092 5324 c-25 -17 -106 -123 -100 -130 5 -4 378 -5 1645 -2 276 1
301 4 306 38 2 8 6 20 9 26 4 6 10 25 13 42 4 27 2 32 -17 36 -13 3 -431 4
-931 4 -718 -1 -911 -4 -925 -14z"/>
<path d="M2027 4946 c-29 -31 -73 -114 -65 -121 7 -8 859 -12 890 -5 14 4 24
14 24 25 1 11 4 39 7 62 4 27 1 45 -7 52 -8 7 -152 10 -420 10 l-408 0 -21
-23z"/>
</g>
</svg>
