<svg id="Layer_1" data-name="Layer 1" xmlns="http://www.w3.org/2000/svg" viewBox="0 0 853.94 434.64"><title>Rihal_logo</title><g id="_Group_" data-name="&lt;Group&gt;"><path id="_Compound_Path_" data-name="&lt;Compound Path&gt;" d="M1304.23,604.49a77,77,0,0,0-12.33,1.08l-19.48-73,42.47-4.56a36.67,36.67,0,1,0-.77-8.61l-44,4.72-32.52-121.91a41.14,41.14,0,1,0-37.77-4.15l-32.94,96.38a48.34,48.34,0,0,0-8-.72,47.39,47.39,0,0,0-30.07,10.7l-26.4-36.29a41.48,41.48,0,1,0-9.26,5.88l27.94,38.41a47.34,47.34,0,0,0-7.36,44.1l-64.28,32.28a52.67,52.67,0,1,0,4.08,8.14l63.92-32.09a47.51,47.51,0,0,0,65.79,17.42L1238,642.94a76.37,76.37,0,1,0,66.25-38.45Zm-94.34-201.57a40.94,40.94,0,0,0,12.88,2.08c1.21,0,2.4-.07,3.58-.18l32.16,120.52L1205.4,531a47.69,47.69,0,0,0-27.84-33.54Zm-18.14,172.9a47.5,47.5,0,0,0,14.8-34.47c0-.59-.06-1.15-.08-1.73l54.29-5.82,19.86,74.45a76.47,76.47,0,0,0-36.53,25.62Z" transform="translate(-533.06 -322.66)"/><g id="_Group_2" data-name="&lt;Group&gt;"><g id="_Group_3" data-name="&lt;Group&gt;"><path id="_Compound_Path_2" data-name="&lt;Compound Path&gt;" d="M543.78,579.4H591q11.67,0,19.22,4,14.37,7.68,14.36,28.37,0,10.79-3.85,17.65a29.66,29.66,0,0,1-10.77,11,21.64,21.64,0,0,1,9.15,7.52q3.08,4.66,3.42,15.12l.5,16.1a56.58,56.58,0,0,0,1,10.22c.85,3.82,2.35,6.27,4.52,7.36v2.69H611.25a16.56,16.56,0,0,1-1.13-4,89.74,89.74,0,0,1-.71-9.48l-.84-20q-.48-11.78-7.35-15.77-3.91-2.2-12.28-2.21h-31.1v51.49H543.78Zm45.66,55q9.63,0,15.22-4.57t5.6-16.51q0-12.84-7.83-17.49-4.2-2.46-11.2-2.46H557.84v41Z" transform="translate(-533.06 -322.66)"/><path id="_Compound_Path_3" data-name="&lt;Compound Path&gt;" d="M644.88,579.4h12.93v16.68H644.88Zm0,32.94h12.93v87.12H644.88Z" transform="translate(-533.06 -322.66)"/><path id="_Compound_Path_4" data-name="&lt;Compound Path&gt;" d="M677,579h12.71v44.79q4.53-6.63,8.13-9.32,6.15-4.66,15.33-4.65,16.45,0,22.33,13.31,3.18,7.27,3.18,20.2v56.14H725.64V644.3q0-9.64-2.12-14.15-3.46-7.18-13-7.19-7.92,0-14.35,6.3T689.74,653v46.42H677Z" transform="translate(-533.06 -322.66)"/><path id="_Compound_Path_5" data-name="&lt;Compound Path&gt;" d="M798.05,646.49a6.93,6.93,0,0,0,5.87-4.24,15,15,0,0,0,.84-5.67q0-7.55-4.62-11t-13.21-3.4q-9.95,0-14.11,6.24-2.33,3.45-3,10.27H757.92q.36-16.23,9.07-22.58a33.38,33.38,0,0,1,20.22-6.35q13.34,0,21.66,5.88T817.12,634v50.43a7,7,0,0,0,.83,3.67c.53.93,1.68,1.39,3.41,1.39a15.18,15.18,0,0,0,1.91-.13c.7-.07,1.46-.2,2.27-.36v10.87a30,30,0,0,1-4.53,1.22,27.59,27.59,0,0,1-4.24.25q-6.57,0-9.53-5.39a23.07,23.07,0,0,1-2.19-8.09,33.45,33.45,0,0,1-11.17,10.21,30.72,30.72,0,0,1-16,4.33A22.17,22.17,0,0,1,760.64,695Q754,687.64,754,676.53q0-12.16,6.57-18.86t17.24-8.24Zm-26.77,39.74a13.65,13.65,0,0,0,9.53,3.67,25.9,25.9,0,0,0,13-3.59q10.61-6,10.6-19.5V655a20.5,20.5,0,0,1-6,2.87,44.81,44.81,0,0,1-7.19,1.63l-7.69,1.15q-6.91,1.07-10.39,3.34-5.91,3.84-5.9,12.23Q767.25,682.56,771.28,686.23Z" transform="translate(-533.06 -322.66)"/><path id="_Compound_Path_6" data-name="&lt;Compound Path&gt;" d="M838.32,579.4H851V699.46H838.32Z" transform="translate(-533.06 -322.66)"/></g><g id="_Group_4" data-name="&lt;Group&gt;"><g id="_Group_5" data-name="&lt;Group&gt;"><path id="_Compound_Path_7" data-name="&lt;Compound Path&gt;" d="M552.6,439.65a39.67,39.67,0,0,0-6,13.11,49.77,49.77,0,0,0-1.38,10.59,23.71,23.71,0,0,0,3.13,12.16,28.23,28.23,0,0,0,8.48,9.05,40,40,0,0,0,12.72,5.59,62,62,0,0,0,15.68,1.92,52.19,52.19,0,0,0,17.33-2.5A30.41,30.41,0,0,0,614,482.65a25.57,25.57,0,0,0,6.36-10.54,43.84,43.84,0,0,0,1.94-13.32V359.1H643v92.18c0,3.63-.1,6.8-.28,9.5s-.4,5.08-.65,7.14a35.85,35.85,0,0,1-1,5.37,27.18,27.18,0,0,1-1.57,4.2,40.47,40.47,0,0,1-8.39,12.66,53,53,0,0,1-12.54,9.5,65.17,65.17,0,0,1-15.67,6,74.21,74.21,0,0,1-18,2.13q-14,0-23.88-3.31a47.65,47.65,0,0,1-16.13-8.69,31.92,31.92,0,0,1-9-12.14,36.07,36.07,0,0,1-2.76-13.7,37.83,37.83,0,0,1,1.2-9.5,47.94,47.94,0,0,1,3.13-8.68,45.07,45.07,0,0,1,4.52-7.51,35.79,35.79,0,0,1,5.53-6Z" transform="translate(-533.06 -322.66)"/><path id="_Compound_Path_8" data-name="&lt;Compound Path&gt;" d="M672.44,475.13v-116h20.65V463.35h16.23a5.55,5.55,0,0,1,3.59.89,3.54,3.54,0,0,1,1,2.8v4.27c0,2.55-1.54,3.82-4.6,3.82Z" transform="translate(-533.06 -322.66)"/><path id="_Compound_Path_9" data-name="&lt;Compound Path&gt;" d="M705.81,475.13c-1.72,0-2.79-.34-3.23-1a4.89,4.89,0,0,1-.64-2.64V466.6a3.51,3.51,0,0,1,.74-2.36c.49-.59,1.53-.89,3.13-.89h77.81a34.19,34.19,0,0,1-3.79-8.46q-1.38-4.63-2.3-9.35-1.29-6-2.86-11.86a31.41,31.41,0,0,0-4.88-10.38,24,24,0,0,0-9-7.36q-5.71-2.79-15.49-2.79a77.05,77.05,0,0,0-21,3.38,35.81,35.81,0,0,1-1.57-4.12c-.43-1.37-.89-2.75-1.38-4.12,1.72-.6,3.68-1.18,5.9-1.77s4.57-1.13,7.09-1.63,5.13-.88,7.84-1.17a74.36,74.36,0,0,1,7.93-.44,71.75,71.75,0,0,1,17.42,1.84,43.1,43.1,0,0,1,12.45,5.08,31.85,31.85,0,0,1,8.48,7.58,42.69,42.69,0,0,1,5.44,9.43,61.32,61.32,0,0,1,3.31,10.6q1.2,5.52,2.13,11.12,1.1,7.21,2.67,13.84a49.15,49.15,0,0,0,4.7,12.36Z" transform="translate(-533.06 -322.66)"/><path id="_Compound_Path_10" data-name="&lt;Compound Path&gt;" d="M865.29,471.46q0,11-3.32,18a30.79,30.79,0,0,1-8.11,10.82,27.35,27.35,0,0,1-10.32,5.37,38.82,38.82,0,0,1-10,1.48,53.83,53.83,0,0,1-12.26-1.48,49.18,49.18,0,0,1-11.53-4.12l1.48-3.83a24.27,24.27,0,0,0,5.44,1c2,.15,3.84.22,5.44.22a39.31,39.31,0,0,0,10-1.1,14.36,14.36,0,0,0,6.92-4.05,18.06,18.06,0,0,0,4-8.24,59.72,59.72,0,0,0,1.29-13.7v-62h20.84Z" transform="translate(-533.06 -322.66)"/></g><g id="_Group_6" data-name="&lt;Group&gt;"><path id="_Compound_Path_11" data-name="&lt;Compound Path&gt;" d="M821.51,526.88,865.1,514.1l-.06,9.73-43.59,12.94Z" transform="translate(-533.06 -322.66)"/></g><g id="_Group_7" data-name="&lt;Group&gt;"><path id="_Compound_Path_12" data-name="&lt;Compound Path&gt;" d="M740.68,367.28l43.59-12.79-.06,9.74-43.59,12.93Z" transform="translate(-533.06 -322.66)"/></g></g></g></g></svg>
